PathFileType	4	(X/Y/Z)	D:\TRACE\v60_Jaco2_6-2-23\BothDRS_Motion2_3-v60.trc
DataRate	CameraRate	NumFrames	NumMarkers	Units	OrigDataRate	OrigDataStartFrame	OrigNumFrames
100.00	100.00	      34	9	mm	100.00	6563	      7500
Frame#	Time	front left toe			Front right toe			aft left toe			aft right toe			Arm			FL body			FR body			AL Body			AR Body			
		X1	Y1	Z1	X2	Y2	Z2	X3	Y3	Z3	X4	Y4	Z4	X5	Y5	Z5	X6	Y6	Z6	X7	Y7	Z7	X8	Y8	Z8	X9	Y9	Z9	

6563	65.620	-101.75960	87.10583	-186.23485	240.29834	34.95490	-208.77704	-77.48129	-19.59577	451.12079	316.61652	33.49785	408.15823	193.49825	1150.42053	-699.38336	-27.92920	594.85809	-304.07553	131.46999	589.57111	-321.22098	70.96293	557.12683	636.01318	228.50293	547.85138	622.68030	
6564	65.630	-104.19590	99.83578	-187.48878	239.94987	35.20938	-208.56245	-77.95909	-20.13412	451.28629	317.48187	45.30516	405.47153	193.42616	1152.90198	-698.30457	-28.24605	595.90491	-303.89725	131.20541	589.99323	-321.55762	71.43583	555.51025	636.47113	225.44797	543.06763	618.64490	
6565	65.640	-107.39748	114.27334	-188.42946	239.69632	35.44096	-208.41934	-78.62728	-20.74659	451.26279	319.70853	59.93908	402.69070	193.59584	1155.30151	-697.30353	-28.12282	596.70435	-303.83801	130.96010	590.59930	-320.74481	71.16282	553.80548	635.96204	225.70680	541.51587	619.16302	
6566	65.650	-110.12965	127.33620	-188.57773	239.62029	35.54655	-208.42297	-79.17049	-21.46875	451.21875	320.20908	72.23992	401.12543	193.64174	1157.14783	-696.22449	-28.22213	597.34613	-303.67606	131.48457	591.48254	-320.97531	71.14120	551.63696	635.97144	225.55125	539.19977	619.02606	
6567	65.660	-111.37466	139.41414	-188.15456	239.47012	35.69932	-208.28793	-79.11511	-21.47045	451.53409	320.77512	84.52289	400.23428	194.35887	1159.11145	-695.37097	-28.12275	598.05640	-303.38763	131.34872	592.04755	-320.83627	71.25294	549.62451	636.01886	225.56790	536.74548	618.50220	
6568	65.670	-112.73370	150.45988	-187.12411	239.19643	35.85697	-208.28708	-79.35770	-21.86601	451.78766	319.70770	94.62572	399.41827	194.14734	1160.59119	-694.36176	-28.00261	598.82123	-303.40082	131.51607	592.67560	-320.63467	71.47836	547.74396	636.04004	225.77933	535.06323	619.06555	
6569	65.680	-113.42369	160.12230	-186.31313	238.93364	36.01328	-208.08562	-79.83794	-22.23110	451.78879	319.59634	101.82371	399.35498	194.45151	1162.32727	-693.81769	-27.78773	599.81714	-302.98376	131.39386	593.19263	-320.11646	71.69086	546.06091	636.33911	226.51372	533.56195	619.87866	
6570	65.690	-115.18975	167.59373	-184.88788	238.51891	36.06860	-207.97153	-80.55622	-22.47933	451.90482	320.17300	105.73697	400.28369	194.24925	1163.65015	-693.31122	-27.23615	600.20557	-302.28748	131.36760	593.64563	-319.63535	71.75217	544.46429	636.52173	226.13126	531.67456	619.48340	
6571	65.700	-116.49317	171.91794	-182.70372	237.85066	36.02232	-207.91365	-81.27288	-22.73461	451.94962	321.46384	109.24068	401.29938	193.90614	1164.70349	-692.63336	-27.23653	600.75568	-301.75845	131.35995	593.90503	-319.64355	71.78193	543.23254	636.99451	226.01958	530.18317	619.88458	
6572	65.710	-117.18610	173.23712	-179.93077	237.34785	36.04855	-207.87735	-82.29480	-22.90355	452.00098	322.63770	110.91225	402.77887	193.97800	1165.67627	-691.95563	-27.19809	601.29865	-301.19431	131.86008	594.38995	-318.42389	72.19803	541.70874	637.06952	225.08095	528.61072	620.30084	
6573	65.720	-117.72170	172.20169	-177.05748	237.12866	36.22988	-207.75183	-83.00698	-23.11372	452.08255	323.04694	108.43735	404.74979	194.34380	1166.58337	-691.10876	-26.86090	601.76471	-300.65097	132.73871	594.79547	-318.06873	72.62901	540.73279	638.48779	226.36708	527.27466	620.92468	
6574	65.730	-118.41862	168.92903	-174.07826	236.67973	36.30677	-207.63181	-81.94122	-24.14949	452.46463	323.50885	104.26900	407.20889	194.27359	1167.28503	-690.52759	-26.39507	602.02515	-299.64929	132.68532	595.08557	-317.53625	72.60519	539.87402	638.72406	226.69521	526.25159	621.60883	
6575	65.740	-118.73444	164.13942	-170.97740	236.38982	36.53752	-207.33257	-82.33201	-24.13795	452.47379	323.71027	98.65516	409.30399	194.39818	1168.13843	-689.96906	-26.32545	602.55652	-298.81921	132.98495	595.29346	-316.61963	73.27015	539.29486	639.57751	227.06122	525.49298	622.15302	
6576	65.750	-118.78978	157.56035	-167.80365	236.06386	36.75282	-207.07146	-82.19740	-24.76353	452.80936	324.24817	92.74231	412.19672	195.45090	1168.84460	-688.93170	-25.77574	602.68756	-297.85294	133.34309	595.51215	-315.53937	73.98764	538.65839	640.23999	227.57823	524.74323	622.79309	
6577	65.760	-118.30099	149.90710	-164.05498	234.26527	36.29074	-207.14862	-83.27982	-24.41859	452.94977	325.39908	85.98214	415.32602	195.67039	1169.60876	-688.11707	-25.85480	602.68268	-297.02051	133.23398	595.63165	-315.21448	74.56443	538.05969	641.02460	228.03313	523.02625	622.51202	
6578	65.770	-118.15878	141.00858	-160.24846	234.99983	36.78076	-206.98378	-84.18531	-24.41685	453.21106	327.15738	78.07208	418.39746	196.46640	1169.90759	-686.96246	-25.51860	602.81219	-295.82324	133.63622	595.49152	-313.83060	74.88637	537.25909	641.88556	228.73465	523.08661	624.42981	
6579	65.780	-118.34470	131.35040	-156.16200	233.63382	36.35721	-207.03809	-84.58488	-24.40445	453.23013	330.96628	70.27935	421.28824	196.98193	1170.48413	-685.91742	-25.37603	603.00238	-294.77969	133.66214	595.23291	-312.74744	75.86356	536.59546	642.38300	232.55328	524.52112	628.36639	
6580	65.790	-119.13674	121.01010	-151.81149	233.46706	36.35545	-206.90475	-85.11983	-24.51366	453.30811	332.54095	60.81481	423.66281	197.49739	1171.04700	-684.63831	-24.87684	603.53418	-293.75906	133.74791	595.48694	-311.57455	76.40282	536.09521	643.66748	233.37935	524.00842	629.50208	
6581	65.800	-119.66158	110.01649	-147.54930	232.85518	36.44713	-206.85632	-85.74123	-24.42735	453.41614	334.02588	51.82861	426.09769	197.63509	1171.57935	-683.39294	-24.21720	603.61896	-292.65491	134.63423	595.72009	-310.35580	77.67952	535.37646	644.24512	233.79076	522.58514	629.05786	
6582	65.810	-119.46986	98.90013	-143.19818	232.61172	36.43780	-206.83360	-86.42646	-24.25967	453.40323	334.65021	42.16304	428.29510	198.35294	1172.04956	-681.91064	-23.90349	603.93420	-291.54745	135.32323	595.97198	-309.62946	78.22028	534.77551	645.30957	234.38538	521.81799	630.05157	
6583	65.820	-117.87383	87.86800	-139.38000	231.96573	36.28570	-206.73578	-86.94331	-24.22989	453.64093	336.94189	33.78271	430.71832	198.45084	1172.41809	-680.45453	-23.63670	603.94165	-290.24631	136.06761	595.97064	-308.43564	78.45633	534.27863	646.56219	235.44846	521.48920	632.14636	
6584	65.830	-116.39262	78.17282	-136.32205	231.33989	36.18304	-206.69180	-87.98292	-23.90274	453.57333	337.76340	24.75994	433.04150	199.08157	1173.15210	-678.96448	-22.84034	604.11670	-288.79211	136.57709	596.03094	-306.90564	80.03453	533.51166	647.66614	236.30881	520.38947	632.25000	
6585	65.840	-114.68575	67.98863	-133.78159	231.04790	36.16558	-206.59953	-88.75492	-23.65210	453.54642	339.61755	16.50471	435.33585	199.70499	1173.50964	-677.15765	-22.48026	604.26880	-287.35950	137.00340	596.12012	-305.83847	80.69138	533.03235	649.38312	236.88615	519.82544	633.45081	
6586	65.850	-112.70238	59.28553	-131.69675	230.38643	36.12160	-206.50784	-87.91842	-24.35723	453.85403	340.24994	8.24961	437.41830	200.30705	1174.12024	-675.72040	-21.79483	604.26654	-286.14185	137.85649	596.44373	-304.26111	81.85829	532.08075	650.14539	238.12128	519.34692	635.50409	
6587	65.860	-110.77261	51.12857	-129.74045	229.76859	36.01752	-206.46698	-87.75970	-24.74954	454.37402	341.29034	0.72339	439.55743	201.46053	1174.56604	-673.89453	-20.98452	604.37518	-284.44543	138.82738	596.47339	-302.68567	82.82793	531.62970	652.11426	238.93178	518.33875	635.87561	
6588	65.870	-109.19661	44.91906	-127.68935	228.97650	35.90678	-206.67606	-88.88550	-24.28848	454.34396	342.00253	-6.08239	441.83539	201.72318	1174.81592	-671.51947	-20.04185	604.23572	-282.87299	139.81583	596.48749	-301.20544	83.68874	530.40094	653.02301	239.62659	517.31873	637.39563	
6589	65.880	-107.24269	39.05744	-126.02424	228.37411	35.67569	-206.81859	-89.75407	-23.97813	454.34808	343.93225	-12.39282	444.13467	202.54088	1174.81995	-669.50208	-19.22300	603.94232	-281.18582	140.72249	595.95807	-299.54688	84.74883	529.48938	655.12720	240.66145	516.24896	638.75598	
6590	65.890	-107.19214	36.08444	-126.53215	227.98624	35.48574	-206.72534	-90.52161	-23.84958	454.11707	344.32684	-16.60492	445.22729	203.18259	1175.17834	-667.41406	-18.51109	603.73560	-279.51727	140.75163	595.50824	-298.31604	85.63739	528.88672	656.59009	241.67357	515.64453	640.55267	
6591	65.900	-108.98106	33.72147	-127.13857	227.19659	35.00534	-206.85551	-91.22112	-23.18415	454.13535	344.76862	-17.73005	443.06534	203.44057	1175.51953	-665.05865	-17.51655	603.72992	-277.80911	141.75281	595.53436	-296.48834	86.59527	528.50061	658.42578	242.66570	515.56152	642.70972	
6592	65.910	-109.69370	34.11819	-126.31813	226.33331	34.76438	-206.65300	-91.65015	-22.72450	454.36118	344.56696	-18.08123	444.07382	204.66174	1175.12610	-663.57861	-16.62613	604.34668	-275.60016	142.56274	595.73114	-294.01413	87.73554	528.54199	659.93262	243.46771	515.70520	644.78662	
6593	65.920	-110.04636	35.93637	-126.91904	225.53377	35.16827	-206.34801	-92.68854	-22.17714	454.38260	344.06366	-17.94095	444.06454	205.95564	1174.94141	-661.87317	-15.37925	604.65613	-273.41306	143.33165	596.44800	-291.69406	88.27290	529.27936	662.77502	244.03752	516.16321	646.47650	
6594	65.930	-109.43925	35.11982	-124.51171	225.66225	38.16713	-205.67203	-92.65807	-20.14314	454.53387	343.08060	-19.33082	445.31769	207.00012	1175.16638	-659.74609	-14.29180	605.17560	-271.16989	144.58104	596.71533	-289.80313	88.74205	529.67242	664.72424	244.61613	516.78149	649.27087	
6595	65.940	-109.48534	34.64910	-123.57999	223.09854	42.19739	-201.59132	-89.81236	-16.08973	455.61182	342.41061	-19.47404	446.39783	208.78146	1175.60730	-657.62506	-13.61626	606.20453	-269.66824	145.34460	597.70306	-287.98523	89.53447	529.38629	666.54095	244.84444	515.76764	649.99561	
6596	65.950	-110.51557	35.02897	-125.01726	221.26604	46.35846	-196.24022	-84.92515	-12.71432	459.70142	341.69537	-20.02707	444.52844	210.17789	1176.91064	-654.99213	-12.62504	606.87878	-268.33109	146.34300	598.22705	-286.72824	89.76389	528.41974	667.07129	245.90637	515.88733	652.30139	
